# 3ds Max Wavefront OBJ Exporter v0.97b - (c)2007 guruware
# File Created: 09.05.2021 10:41:45

mtllib spate.mtl

#
# object Box001
#

v  -6.1636 -0.5895 -1.7076
v  -6.3691 -0.3481 -1.5745
v  -5.0724 -0.6919 -1.6781
v  -5.7640 -1.1385 -1.9775
v  -3.5630 -0.6088 -1.6093
v  -3.5630 -1.0442 -1.8890
v  -0.7922 -0.7257 -1.7904
v  -1.6520 -1.0553 -1.9497
v  0.0561 -0.8255 -1.9451
v  0.2092 -1.1163 -2.1191
v  2.2572 -0.7169 -2.3394
v  2.2572 -1.0594 -2.6325
v  3.9969 -0.2220 -2.8376
v  4.1916 -0.9730 -3.4897
v  4.9440 -0.3204 -3.5824
v  4.4564 -0.8233 -3.5719
v  -6.6320 0.0208 -1.3353
v  -5.8765 -0.2787 -1.4586
v  -3.5630 -0.2731 -1.4206
v  -0.7922 -0.1901 -1.5043
v  -0.0841 -0.2731 -1.5658
v  2.7377 0.0669 -1.9211
v  4.8535 0.0800 -2.9668
v  5.3629 -0.0368 -3.4513
v  -6.8092 0.3594 -1.1510
v  -6.2963 0.4340 -1.1575
v  -3.4246 0.6703 -0.9610
v  -1.2019 0.7576 -0.9838
v  -0.0841 0.7465 -1.0476
v  2.9131 0.7576 -1.5598
v  5.4958 0.5838 -2.5246
v  5.7727 0.3342 -3.2854
v  -6.8251 0.6914 -0.9227
v  -6.0498 0.8665 -0.8330
v  -3.6888 0.9520 -0.6936
v  -1.6520 0.9881 -0.7094
v  0.2092 0.9873 -0.8221
v  3.0639 1.0039 -1.3048
v  6.2576 0.9441 -2.3532
v  6.2535 0.7322 -2.7622
v  -6.0124 -0.9801 -0.9095
v  -5.6733 -1.2371 -0.9391
v  -5.5161 -1.1116 -0.9499
v  -6.1696 -0.7621 -0.8412
v  -3.5375 -1.2784 -1.0531
v  -3.5298 -1.1109 -1.0402
v  -0.9458 -1.3315 -1.1332
v  -0.5964 -1.1377 -1.1232
v  0.2456 -1.3444 -1.2800
v  -0.2075 -1.1577 -1.1935
v  2.3047 -1.2907 -1.5146
v  2.2685 -1.1056 -1.4596
v  4.2247 -1.2358 -1.9791
v  4.1562 -1.0793 -1.7416
v  4.5987 -1.1277 -2.0175
v  5.0449 -0.7369 -1.8669
v  -5.9724 -0.7668 -0.8562
v  -6.4612 -0.1673 -0.6564
v  -5.3458 -0.8843 -1.4142
v  -3.5630 -0.8970 -1.3452
v  -3.5630 -0.5413 -1.3234
v  -5.8765 -0.5468 -1.3032
v  -0.7922 -0.9310 -1.4362
v  -0.7922 -0.5912 -1.3284
v  -0.2162 -0.4729 -0.9433
v  -0.6040 -0.4946 -0.9078
v  -0.0841 -0.8547 -1.4512
v  2.2572 -0.8117 -2.1343
v  2.2572 -0.3583 -1.9355
v  -0.1094 -0.5413 -1.4196
v  4.0196 -0.8279 -2.5693
v  4.6487 -0.2598 -2.5779
v  5.5213 -0.3872 -1.8034
v  5.1396 -0.3752 -1.7246
v  -6.5242 0.3906 -0.5676
v  -6.6100 0.4241 -0.5789
v  -3.5630 0.2191 -1.0532
v  -6.0687 0.1056 -1.1904
v  -0.8377 0.2953 -1.0258
v  -0.1988 0.4701 -0.6070
v  -0.5871 0.4515 -0.5575
v  2.7377 0.2870 -1.5677
v  -0.0841 0.2399 -1.1836
v  5.0141 0.2851 -2.2046
v  5.8859 -0.0176 -1.8318
v  5.8657 0.3749 -1.6479
v  -6.0060 0.5951 -0.5211
v  -6.5622 0.5406 -0.5952
v  -3.5827 0.4528 -0.4826
v  -3.6572 0.6111 -0.4569
v  -1.6274 0.5954 -0.5544
v  0.2266 0.5968 -0.6298
v  2.7881 0.4856 -0.9651
v  3.0693 0.6284 -0.9733
v  6.1332 0.5136 -1.6699
v  6.1239 0.2187 -1.9607
v  -5.7640 -1.2624 -1.4630
v  -6.1332 -0.9325 -1.4630
v  -3.5630 -1.3123 -1.4630
v  -0.9793 -1.3650 -1.4630
v  0.2092 -1.3844 -1.6147
v  2.2572 -1.3275 -2.2570
v  4.1916 -1.1975 -3.1522
v  4.4564 -1.0914 -3.2104
v  4.9238 -0.5885 -3.3768
v  5.3869 -0.2328 -3.2256
v  5.7727 0.0661 -3.0797
v  6.3729 0.6071 -2.6219
v  6.2576 0.8660 -2.1579
v  2.9714 0.9602 -1.2042
v  0.2092 0.9230 -0.8040
v  -1.6520 0.8799 -0.6922
v  -3.6888 0.9029 -0.6189
v  -6.0498 0.8562 -0.7479
v  -6.7240 0.6461 -0.9134
v  -6.8092 0.1835 -1.1241
v  -6.6320 -0.3517 -1.2376
v  -6.3691 -0.6995 -1.3175
v  -6.1130 -0.9547 -1.3213
v  4.9238 -0.7009 -3.1462
v  5.5414 -0.2328 -3.0151
v  5.9021 0.0661 -2.7848
v  6.3428 0.4641 -2.3161
v  6.2576 0.8221 -1.9797
v  3.0639 0.8818 -1.1274
v  0.2092 0.8832 -0.7910
v  -1.6520 0.8660 -0.6590
v  -3.6888 0.8771 -0.5873
v  -6.0498 0.8103 -0.6670
v  -6.7240 0.6405 -0.8527
v  -6.8092 0.1329 -1.0267
v  -6.6320 -0.3749 -1.1364
v  -6.3489 -0.7022 -1.2176
v  -5.3379 -0.9427 -1.3199
v  -3.5023 -0.9320 -1.3148
v  -5.8765 -0.5468 -1.2273
v  -6.2306 0.1908 -1.1625
v  -3.5630 0.3050 -0.9925
v  -0.7922 0.3452 -0.9954
v  -0.7669 -0.5912 -1.2273
v  -0.7796 -0.9490 -1.4160
v  -0.1398 -0.9282 -1.4010
v  2.2572 -0.8865 -2.0231
v  -0.1448 -0.5219 -1.3263
v  -0.1600 0.3092 -1.1175
v  2.7377 0.3563 -1.4940
v  5.1949 0.3572 -2.0883
v  4.8465 -0.1919 -2.3654
v  4.1107 -0.8646 -2.4479
v  -5.7360 -1.2802 -1.3024
v  -6.1002 -0.9641 -1.2545
v  -3.5350 -1.3633 -1.2141
v  -0.9513 -1.4216 -1.2444
v  0.2372 -1.4243 -1.4541
v  2.2852 -1.3619 -2.0964
v  4.2196 -1.2478 -2.8107
v  4.4086 -1.2089 -2.8689
v  4.9139 -0.7892 -2.8994
v  5.3820 -0.3614 -2.8545
v  5.7476 -0.0625 -2.6886
v  6.2815 0.3354 -2.1655
v  6.2856 0.6935 -1.8273
v  3.0919 0.7712 -1.0516
v  0.2372 0.7761 -0.7411
v  -1.6240 0.7908 -0.6239
v  -3.6608 0.7915 -0.5481
v  -6.0218 0.7600 -0.6404
v  -6.7396 0.6200 -0.7651
v  -6.7812 0.0902 -0.9635
v  -6.5838 -0.3760 -0.9556
v  -6.3159 -0.7449 -1.0659
v  -5.3099 -0.9889 -1.1569
v  -3.5047 -0.9624 -1.1569
v  -5.8359 -0.6754 -0.9683
v  -6.3088 0.2656 -0.9339
v  -3.5768 0.3525 -0.8045
v  -0.7642 0.3608 -0.8296
v  -0.7187 -0.5756 -1.0694
v  -0.7389 -0.9889 -1.2543
v  -0.1472 -0.9833 -1.3086
v  2.2852 -0.9403 -1.7364
v  -0.1497 -0.5028 -1.1200
v  -0.2079 0.3497 -1.0245
v  2.7657 0.3608 -1.2877
v  5.4239 0.3608 -1.9426
v  4.9984 -0.2374 -2.1895
v  4.1386 -0.8789 -2.0303
v  -5.6976 -1.2974 -1.0562
v  -6.1054 -0.9353 -0.9940
v  -3.5365 -1.3419 -1.0691
v  -0.9480 -1.3940 -1.2435
v  0.2428 -1.4099 -1.4022
v  2.2976 -1.3720 -1.5565
v  4.2225 -1.2871 -2.2006
v  4.5662 -1.1629 -2.2467
v  5.1552 -0.7853 -2.1165
v  5.6146 -0.3335 -2.2477
v  5.9783 -0.0477 -2.2726
v  6.3245 0.3130 -2.0435
v  6.2726 0.6111 -1.7618
v  3.0783 0.6747 -0.9880
v  0.2306 0.6784 -0.6938
v  -1.6262 0.7256 -0.5995
v  -3.6586 0.7030 -0.4973
v  -6.0121 0.6721 -0.5755
v  -6.6947 0.5610 -0.6851
v  -6.7499 0.2997 -0.7812
v  -6.5463 -0.3361 -0.9017
v  -6.2907 -0.7055 -0.9698
v  -5.3427 -1.0251 -0.9860
v  -3.4611 -1.0281 -1.0680
v  -5.8821 -0.7329 -0.9118
v  -6.3511 0.3362 -0.6372
v  -3.5824 0.3423 -0.5326
v  -0.6557 0.4140 -0.6191
v  -0.6657 -0.5722 -1.0162
v  -0.6613 -1.0794 -1.1570
v  -0.1497 -1.0896 -1.2597
v  2.2746 -1.0410 -1.7057
v  -0.1546 -0.4739 -0.9853
v  -0.1439 0.3404 -0.7254
v  2.7790 0.3561 -1.0748
v  5.6007 0.2752 -1.7828
v  5.0641 -0.3013 -2.1420
v  4.1496 -1.0323 -1.9712
# 225 vertices

vn -0.3207 0.2667 -0.8897
vn -0.2052 0.4197 -0.8754
vn 0.0217 0.5901 -0.8144
vn 0.0514 0.5683 -0.8261
vn -0.0122 0.5848 -0.8178
vn -0.0100 0.6099 -0.8022
vn -0.0552 0.6043 -0.8040
vn -0.0307 0.5663 -0.8282
vn -0.1167 0.5791 -0.8134
vn -0.1403 0.5347 -0.8350
vn -0.2534 0.6648 -0.7224
vn -0.2875 0.6847 -0.6934
vn -0.3694 0.7833 -0.5483
vn -0.4349 0.5829 -0.6995
vn -0.3900 0.7478 -0.5778
vn -0.4795 0.5249 -0.7105
vn -0.0048 0.5244 -0.8515
vn 0.0571 0.5824 -0.8174
vn -0.0100 0.5349 -0.8460
vn -0.0329 0.5357 -0.8450
vn -0.0973 0.5616 -0.8260
vn -0.2446 0.6226 -0.7568
vn -0.3149 0.8393 -0.5054
vn -0.3600 0.7947 -0.5397
vn -0.0640 0.5984 -0.8071
vn -0.0331 0.5920 -0.8128
vn -0.0112 0.6406 -0.7815
vn -0.0392 0.6784 -0.7527
vn -0.0734 0.6680 -0.7583
vn -0.1790 0.7074 -0.7088
vn -0.2556 0.8563 -0.5128
vn -0.3318 0.8774 -0.4296
vn -0.0313 0.6375 -0.7832
vn -0.0026 0.6673 -0.7622
vn -0.0077 0.7495 -0.6928
vn -0.0338 0.8002 -0.6400
vn -0.0875 0.8083 -0.6258
vn -0.1496 0.8227 -0.5969
vn -0.2502 0.8749 -0.4862
vn -0.2789 0.9150 -0.3928
vn -0.3677 -0.6740 0.6652
vn -0.1439 -0.6065 0.7920
vn 0.1023 -0.0010 0.9601
vn -0.3679 -0.5603 0.7503
vn 0.0263 -0.2115 0.9524
vn 0.0409 0.1005 0.9559
vn 0.0431 -0.6067 0.8032
vn -0.0092 -0.2579 0.9444
vn 0.0934 -0.6534 0.7670
vn 0.2879 -0.1513 0.9192
vn 0.1410 -0.4415 0.8787
vn 0.1047 0.4978 0.8206
vn 0.2242 -0.9309 0.3934
vn 0.0144 0.0292 0.9635
vn 0.4161 -0.8572 0.3916
vn 0.4022 -0.7779 0.5322
vn 0.2495 -0.0809 0.9346
vn -0.3260 -0.3704 0.8584
vn 0.2236 0.4082 0.8443
vn -0.0090 0.3323 0.9011
vn -0.0063 -0.2532 0.9453
vn 0.5732 0.4240 0.6683
vn -0.4003 0.1851 0.8603
vn -0.6030 -0.3075 0.7261
vn 0.3345 -0.3856 0.8499
vn -0.3731 -0.3706 0.8399
vn 0.4644 0.0910 0.8470
vn 0.2544 0.2690 0.8886
vn 0.2330 -0.5643 0.7981
vn 0.6308 -0.1611 0.7398
vn -0.0022 0.5128 0.8182
vn -0.3470 -0.0113 0.9055
vn 0.5144 -0.5973 0.6340
vn -0.3130 0.2724 0.8702
vn -0.0488 -0.1590 0.9585
vn -0.4962 -0.0186 0.8384
vn -0.0026 -0.5225 0.8525
vn 0.0084 -0.3059 0.9335
vn -0.1483 -0.4347 0.8804
vn 0.1800 -0.4266 0.8779
vn -0.0284 -0.1705 0.9580
vn 0.1656 -0.7278 0.6938
vn 0.2591 -0.4832 0.8340
vn -0.1824 -0.6571 0.7486
vn 0.5898 -0.6132 0.5518
vn 0.2586 -0.4459 0.8511
vn -0.0700 0.2418 0.9266
vn -0.2718 0.5601 0.7459
vn 0.0081 -0.3357 0.9255
vn 0.0038 0.1188 0.9542
vn 0.0386 0.2540 0.9250
vn 0.0950 0.2210 0.9299
vn 0.1261 -0.4941 0.8577
vn 0.1825 -0.0404 0.9497
vn 0.4362 -0.1328 0.8647
vn 0.5733 -0.6919 0.4818
vn -0.6989 -0.6180 -0.3546
vn -0.8075 -0.5923 -0.1110
vn -0.7402 -0.6148 -0.2782
vn -0.5650 -0.7064 -0.4185
vn -0.0098 -0.9928 -0.2283
vn 0.0185 -0.8856 -0.4627
vn 0.0133 -0.8967 -0.4447
vn -0.0202 -1.0039 -0.1882
vn -0.0313 -0.9013 -0.4361
vn -0.0570 -0.9151 -0.4093
vn -0.0922 -0.9122 -0.4091
vn -0.0870 -0.9168 -0.4015
vn -0.1632 -0.8433 -0.5025
vn -0.1471 -0.8507 -0.4962
vn 0.0742 -0.8583 -0.4993
vn -0.0451 -0.8698 -0.4856
vn 0.4312 -0.7410 -0.4998
vn 0.3550 -0.8085 -0.4625
vn 0.5582 -0.5782 -0.5689
vn 0.5717 -0.6681 -0.4617
vn 0.5930 -0.5944 -0.5209
vn 0.6081 -0.6304 -0.4660
vn 0.7043 -0.4366 -0.5338
vn 0.6839 -0.6030 -0.3993
vn 0.8452 0.2007 -0.4883
vn 0.9620 -0.0152 -0.2626
vn 0.8966 0.4258 0.1399
vn 0.6425 0.7610 0.1743
vn 0.1515 0.8789 0.4519
vn 0.0926 0.8657 0.4858
vn 0.1060 0.2806 0.9125
vn 0.1005 0.3105 0.9035
vn 0.0480 0.1662 0.9451
vn 0.0328 0.6453 0.7283
vn -0.0268 0.8769 0.4759
vn -0.0156 0.8425 0.5260
vn -0.1769 1.0040 0.1112
vn -0.1743 0.9664 0.2593
vn -0.3250 -0.3051 0.8787
vn -0.5805 0.1784 0.7612
vn -0.9776 -0.0406 -0.1982
vn -0.9500 -0.0991 -0.2829
vn -0.8000 -0.1980 -0.5412
vn -0.7961 -0.4043 -0.4299
vn -0.8339 -0.3474 -0.4090
vn -0.8123 -0.5709 -0.1577
vn -0.7400 -0.6322 -0.2450
vn -0.7423 -0.6423 -0.2163
vn -0.6216 -0.8092 0.0350
vn -0.6252 -0.8060 0.0163
vn 1.0000 0.0000 -0.0000
vn -0.0294 -1.0008 -0.1988
vn -0.0211 -1.0112 -0.1572
vn -0.0408 -1.0035 -0.1870
vn -0.0233 -1.0107 -0.1592
vn 0.1403 -1.0009 -0.1580
vn 0.4786 -0.8757 -0.1872
vn 0.6069 -0.7677 -0.2424
vn 0.6638 -0.7110 -0.2553
vn 0.7037 -0.6970 -0.1882
vn 0.9510 -0.3186 -0.0101
vn 0.6103 0.7556 0.2644
vn 0.1470 0.7277 0.6423
vn 0.0874 0.4015 0.8699
vn 0.0286 0.7553 0.6289
vn -0.0084 0.6454 0.7289
vn -0.1769 0.6999 0.6623
vn -0.7287 0.7039 0.0387
vn -0.9829 -0.1417 0.1244
vn -0.8497 -0.5439 0.0486
vn -0.7253 -0.7111 0.0303
vn -0.6724 -0.7646 0.0266
vn -0.6670 -0.7624 0.1268
vn 0.2808 0.9206 0.3084
vn 0.0121 0.9090 0.4235
vn 0.7574 0.6648 0.0809
vn 0.6548 -0.3936 0.6450
vn 0.0053 -0.8851 0.5313
vn -0.5454 -0.7078 0.4930
vn -0.9549 -0.1244 0.2669
vn -0.6342 0.5997 0.4698
vn 0.7061 0.4407 0.5286
vn 0.0756 0.9569 0.3194
vn 0.9755 -0.0162 0.2124
vn 0.4994 -0.6320 0.6161
vn 0.0705 -0.9745 0.3500
vn -0.3429 -0.7380 0.6168
vn -0.6804 0.3921 0.5900
vn -0.3559 0.9175 0.2453
vn -0.6193 -0.8109 0.0423
vn -0.6191 -0.8112 0.0327
vn -0.0297 -1.0247 -0.0790
vn -0.0233 -1.0318 0.0011
vn -0.2379 -1.0016 -0.0162
vn 0.0301 -0.8222 0.6149
vn -0.0007 -1.0329 0.0319
vn 0.0020 -1.0249 -0.0808
vn 0.1034 -1.0218 -0.0614
vn 0.3632 -0.9511 -0.1007
vn 0.6125 -0.7857 -0.1774
vn 0.6102 -0.8049 -0.1074
vn 0.6442 -0.7670 -0.1479
vn 0.8970 -0.4242 -0.1418
vn 0.7518 0.4690 0.4435
vn 0.1544 0.5951 0.7519
vn 0.0807 0.4648 0.8406
vn 0.0502 0.4204 0.8642
vn 0.0009 0.4904 0.8307
vn -0.1205 0.5350 0.7969
vn -0.7628 0.5758 0.2943
vn -0.8963 -0.2973 0.3369
vn -0.7270 -0.5285 0.4621
vn -0.6944 -0.7220 0.1923
vn -0.6890 -0.7482 0.0521
vn -0.6560 -0.7790 0.0581
vn 0.2225 0.9757 0.1955
vn 0.0123 0.9534 0.3349
vn 0.7026 0.4939 0.4898
vn 0.8377 -0.4853 0.2874
vn 0.0201 -1.0296 0.1143
vn -0.5526 -0.7914 0.3469
vn -0.8419 -0.1885 0.4974
vn -0.6355 0.4972 0.5637
vn 0.8131 0.3717 0.4273
vn 0.0993 0.7677 0.6093
vn 0.9997 0.0188 0.0172
vn 0.7429 -0.6811 0.1371
vn -0.0035 -1.0326 0.0162
vn -0.5396 -0.7609 0.4225
vn -0.5098 0.3362 0.7557
vn -0.1663 0.7584 0.6063
vn -0.3009 -0.9641 0.2256
vn -0.6424 -0.7546 0.2525
vn -0.0063 -0.7925 0.6492
vn 0.0614 -0.5872 0.8143
vn 0.0492 -0.9750 0.3523
vn 0.1021 -0.8969 0.5028
vn 0.1798 -1.0155 0.0721
vn 0.4259 -0.9345 0.0305
vn 0.5606 -0.8520 0.1032
vn 0.6281 -0.8004 -0.0386
vn 0.7008 -0.7245 -0.0979
vn 0.9497 -0.3165 0.0747
vn 0.7339 0.1361 0.6379
vn 0.1615 0.4279 0.8482
vn 0.0660 0.5591 0.7877
vn 0.0514 0.3599 0.8895
vn 0.0028 0.4808 0.8358
vn -0.1112 0.6199 0.7408
vn -0.6271 0.3865 0.6446
vn -0.8932 -0.1568 0.4145
vn -0.6579 -0.4727 0.5953
vn -0.6618 -0.6553 0.4105
vn 0.1935 0.6726 0.6826
vn 0.0336 0.6127 0.7529
vn 0.5057 0.3108 0.7685
vn 0.3136 -0.6305 0.7261
vn 0.0112 -0.8923 0.5201
vn -0.3498 -0.7478 0.6024
vn -0.7306 -0.2508 0.6255
vn -0.3893 0.2433 0.8501
vn 0.5526 0.3325 0.7292
vn 0.1016 0.7336 0.6443
vn 0.8556 -0.2312 0.4594
vn 0.6221 -0.6517 0.4724
vn 0.0577 -0.9543 0.4015
vn -0.5176 -0.3808 0.7598
vn -0.5669 0.5218 0.6081
vn -0.1793 0.8017 0.5528
# 265 vertex normals

vt 1.0000 0.0000 0.0000
vt 1.0000 0.2500 0.0000
vt 0.8571 0.2500 0.0000
vt 0.8571 0.0000 0.0000
vt 0.7143 0.2500 0.0000
vt 0.7143 0.0000 0.0000
vt 0.5714 0.2500 0.0000
vt 0.5714 0.0000 0.0000
vt 0.4286 0.2500 0.0000
vt 0.4286 0.0000 0.0000
vt 0.2857 0.2500 0.0000
vt 0.2857 0.0000 0.0000
vt 0.1429 0.2500 0.0000
vt 0.1429 0.0000 0.0000
vt 0.0000 0.2500 0.0000
vt 0.0000 0.0000 0.0000
vt 1.0000 0.5000 0.0000
vt 0.8571 0.5000 0.0000
vt 0.7143 0.5000 0.0000
vt 0.5714 0.5000 0.0000
vt 0.4286 0.5000 0.0000
vt 0.2857 0.5000 0.0000
vt 0.1429 0.5000 0.0000
vt 0.0000 0.5000 0.0000
vt 1.0000 0.7500 0.0000
vt 0.8571 0.7500 0.0000
vt 0.7143 0.7500 0.0000
vt 0.5714 0.7500 0.0000
vt 0.4286 0.7500 0.0000
vt 0.2857 0.7500 0.0000
vt 0.1429 0.7500 0.0000
vt 0.0000 0.7500 0.0000
vt 1.0000 1.0000 0.0000
vt 0.8571 1.0000 0.0000
vt 0.7143 1.0000 0.0000
vt 0.5714 1.0000 0.0000
vt 0.4286 1.0000 0.0000
vt 0.2857 1.0000 0.0000
vt 0.1429 1.0000 0.0000
vt 0.0000 1.0000 0.0000
vt 0.2500 0.0000 0.0000
vt 0.2500 1.0000 0.0000
vt 0.5000 0.0000 0.0000
vt 0.5000 1.0000 0.0000
vt 0.7500 0.0000 0.0000
vt 0.7500 1.0000 0.0000
# 46 texture coords

g Box001
usemtl wire_166229229
s 1
f 1/1/1 2/2/2 3/3/3 4/4/4 
f 4/4/4 3/3/3 5/5/5 6/6/6 
f 6/6/6 5/5/5 7/7/7 8/8/8 
f 8/8/8 7/7/7 9/9/9 10/10/10 
f 10/10/10 9/9/9 11/11/11 12/12/12 
f 12/12/12 11/11/11 13/13/13 14/14/14 
f 14/14/14 13/13/13 15/15/15 16/16/16 
f 2/2/2 17/17/17 18/18/18 3/3/3 
f 3/3/3 18/18/18 19/19/19 5/5/5 
f 5/5/5 19/19/19 20/20/20 7/7/7 
f 7/7/7 20/20/20 21/21/21 9/9/9 
f 9/9/9 21/21/21 22/22/22 11/11/11 
f 11/11/11 22/22/22 23/23/23 13/13/13 
f 13/13/13 23/23/23 24/24/24 15/15/15 
f 17/17/17 25/25/25 26/26/26 18/18/18 
f 18/18/18 26/26/26 27/27/27 19/19/19 
f 19/19/19 27/27/27 28/28/28 20/20/20 
f 20/20/20 28/28/28 29/29/29 21/21/21 
f 21/21/21 29/29/29 30/30/30 22/22/22 
f 22/22/22 30/30/30 31/31/31 23/23/23 
f 23/23/23 31/31/31 32/32/32 24/24/24 
f 25/25/25 33/33/33 34/34/34 26/26/26 
f 26/26/26 34/34/34 35/35/35 27/27/27 
f 27/27/27 35/35/35 36/36/36 28/28/28 
f 28/28/28 36/36/36 37/37/37 29/29/29 
f 29/29/29 37/37/37 38/38/38 30/30/30 
f 30/30/30 38/38/38 39/39/39 31/31/31 
f 31/31/31 39/39/39 40/40/40 32/32/32 
s 2
f 41/16/41 42/14/42 43/13/43 44/15/44 
f 42/14/42 45/12/45 46/11/46 43/13/43 
f 45/12/45 47/10/47 48/9/48 46/11/46 
f 47/10/47 49/8/49 50/7/50 48/9/48 
f 49/8/49 51/6/51 52/5/52 50/7/50 
f 51/6/51 53/4/53 54/3/54 52/5/52 
f 53/4/53 55/1/55 56/2/56 54/3/54 
f 44/15/44 43/13/43 57/23/57 58/24/58 
f 59/13/59 60/11/60 61/22/61 62/23/62 
f 60/11/60 63/9/63 64/21/64 61/22/61 
f 48/9/48 50/7/50 65/20/65 66/21/66 
f 67/7/67 68/5/68 69/19/69 70/20/70 
f 68/5/68 71/3/71 72/18/72 69/19/69 
f 54/3/54 56/2/56 73/17/73 74/18/74 
f 58/24/58 57/23/57 75/31/75 76/32/76 
f 62/23/62 61/22/61 77/30/77 78/31/78 
f 61/22/61 64/21/64 79/29/79 77/30/77 
f 66/21/66 65/20/65 80/28/80 81/29/81 
f 70/20/70 69/19/69 82/27/82 83/28/83 
f 69/19/69 72/18/72 84/26/84 82/27/82 
f 74/18/74 73/17/73 85/25/85 86/26/86 
f 76/32/76 75/31/75 87/39/87 88/40/88 
f 75/31/75 89/30/89 90/38/90 87/39/87 
f 89/30/89 81/29/81 91/37/91 90/38/90 
f 81/29/81 80/28/80 92/36/92 91/37/91 
f 80/28/80 93/27/93 94/35/94 92/36/92 
f 93/27/93 86/26/86 95/34/95 94/35/94 
f 86/26/86 85/25/85 96/33/96 95/34/95 
s 4
f 1/16/97 4/14/98 97/39/99 98/40/100 
s 2
f 4/14/101 6/12/102 99/38/103 97/39/104 
f 6/12/102 8/10/105 100/37/106 99/38/103 
f 8/10/105 10/8/107 101/36/108 100/37/106 
f 10/8/107 12/6/109 102/35/110 101/36/108 
f 12/6/109 14/4/111 103/34/112 102/35/110 
f 14/4/111 16/1/113 104/33/114 103/34/112 
f 16/16/113 15/41/115 105/42/116 104/40/114 
f 15/41/115 24/43/117 106/44/118 105/42/116 
f 24/43/117 32/45/119 107/46/120 106/44/118 
f 32/45/119 40/1/121 108/33/122 107/46/120 
f 40/16/121 39/14/123 109/39/124 108/40/122 
f 39/14/123 38/12/125 110/38/126 109/39/124 
f 38/12/125 37/10/127 111/37/128 110/38/126 
f 37/10/127 36/8/129 112/36/130 111/37/128 
f 36/8/129 35/6/131 113/35/132 112/36/130 
f 35/6/131 34/4/133 114/34/134 113/35/132 
f 34/4/133 33/1/135 115/33/136 114/34/134 
f 33/16/135 25/41/137 116/42/138 115/40/136 
f 25/41/137 17/43/139 117/44/140 116/42/138 
f 17/43/139 2/45/141 118/46/142 117/44/140 
s 1
f 2/45/2 1/1/1 98/33/143 118/46/144 
s 4
f 98/16/100 97/14/99 97/14/145 119/16/146 
s 1
f 97/14/147 99/12/147 99/12/147 97/14/147 
s 2
f 99/12/103 100/10/106 100/10/148 99/12/149 
f 100/10/106 101/8/108 101/8/150 100/10/148 
f 101/8/108 102/6/110 102/6/151 101/8/150 
f 102/6/110 103/4/112 103/4/152 102/6/151 
f 103/4/112 104/1/114 104/1/153 103/4/152 
f 104/1/114 105/2/116 120/2/154 104/1/153 
f 105/2/116 106/17/118 121/17/155 120/2/154 
f 106/17/118 107/25/120 122/25/156 121/17/155 
f 107/25/120 108/33/122 123/33/157 122/25/156 
f 108/33/122 109/34/124 124/34/158 123/33/157 
f 109/34/124 110/35/126 125/35/159 124/34/158 
f 110/35/126 111/36/128 126/36/160 125/35/159 
f 111/36/128 112/37/130 127/37/161 126/36/160 
f 112/37/130 113/38/132 128/38/162 127/37/161 
f 113/38/132 114/39/134 129/39/163 128/38/162 
f 114/39/134 115/40/136 130/40/164 129/39/163 
f 115/40/136 116/32/138 131/32/165 130/40/164 
f 116/32/138 117/24/140 132/24/166 131/32/165 
f 117/24/140 118/15/142 133/15/167 132/24/166 
s 1
f 118/15/144 98/16/143 119/16/168 133/15/169 
s 2
f 60/11/60 59/13/59 134/13/170 135/11/171 
f 59/13/59 62/23/62 136/23/172 134/13/170 
f 62/23/62 78/31/78 137/31/173 136/23/172 
f 78/31/78 77/30/77 138/30/174 137/31/173 
f 77/30/77 79/29/79 139/29/175 138/30/174 
f 79/29/79 64/21/64 140/21/176 139/29/175 
f 64/21/64 63/9/63 141/9/177 140/21/176 
f 63/9/63 60/11/60 135/11/171 141/9/177 
f 68/5/68 67/7/67 142/7/178 143/5/179 
f 67/7/67 70/20/70 144/20/180 142/7/178 
f 70/20/70 83/28/83 145/28/181 144/20/180 
f 83/28/83 82/27/82 146/27/182 145/28/181 
f 82/27/82 84/26/84 147/26/183 146/27/182 
f 84/26/84 72/18/72 148/18/184 147/26/183 
f 72/18/72 71/3/71 149/3/185 148/18/184 
f 71/3/71 68/5/68 143/5/179 149/3/185 
s 4
f 119/16/146 97/14/145 150/14/186 151/16/187 
s 2
f 97/14/188 99/12/149 152/12/189 150/14/190 
f 99/12/149 100/10/148 153/10/191 152/12/189 
f 100/10/148 101/8/150 154/8/192 153/10/191 
f 101/8/150 102/6/151 155/6/193 154/8/192 
f 102/6/151 103/4/152 156/4/194 155/6/193 
f 103/4/152 104/1/153 157/1/195 156/4/194 
f 104/1/153 120/2/154 158/2/196 157/1/195 
f 120/2/154 121/17/155 159/17/197 158/2/196 
f 121/17/155 122/25/156 160/25/198 159/17/197 
f 122/25/156 123/33/157 161/33/199 160/25/198 
f 123/33/157 124/34/158 162/34/200 161/33/199 
f 124/34/158 125/35/159 163/35/201 162/34/200 
f 125/35/159 126/36/160 164/36/202 163/35/201 
f 126/36/160 127/37/161 165/37/203 164/36/202 
f 127/37/161 128/38/162 166/38/204 165/37/203 
f 128/38/162 129/39/163 167/39/205 166/38/204 
f 129/39/163 130/40/164 168/40/206 167/39/205 
f 130/40/164 131/32/165 169/32/207 168/40/206 
f 131/32/165 132/24/166 170/24/208 169/32/207 
f 132/24/166 133/15/167 171/15/209 170/24/208 
f 133/15/167 119/16/210 151/16/211 171/15/209 
f 135/11/171 134/13/170 172/13/212 173/11/213 
f 134/13/170 136/23/172 174/23/214 172/13/212 
f 136/23/172 137/31/173 175/31/215 174/23/214 
f 137/31/173 138/30/174 176/30/216 175/31/215 
f 138/30/174 139/29/175 177/29/217 176/30/216 
f 139/29/175 140/21/176 178/21/218 177/29/217 
f 140/21/176 141/9/177 179/9/219 178/21/218 
f 141/9/177 135/11/171 173/11/213 179/9/219 
f 143/5/179 142/7/178 180/7/220 181/5/221 
f 142/7/178 144/20/180 182/20/222 180/7/220 
f 144/20/180 145/28/181 183/28/223 182/20/222 
f 145/28/181 146/27/182 184/27/224 183/28/223 
f 146/27/182 147/26/183 185/26/225 184/27/224 
f 147/26/183 148/18/184 186/18/226 185/26/225 
f 148/18/184 149/3/185 187/3/227 186/18/226 
f 149/3/185 143/5/179 181/5/221 187/3/227 
f 151/16/211 150/14/190 188/14/228 189/16/229 
f 150/14/190 152/12/189 190/12/230 188/14/228 
f 152/12/189 153/10/191 191/10/231 190/12/230 
f 153/10/191 154/8/192 192/8/232 191/10/231 
f 154/8/192 155/6/193 193/6/233 192/8/232 
f 155/6/193 156/4/194 194/4/234 193/6/233 
f 156/4/194 157/1/195 195/1/235 194/4/234 
f 157/1/195 158/2/196 196/2/236 195/1/235 
f 158/2/196 159/17/197 197/17/237 196/2/236 
f 159/17/197 160/25/198 198/25/238 197/17/237 
f 160/25/198 161/33/199 199/33/239 198/25/238 
f 161/33/199 162/34/200 200/34/240 199/33/239 
f 162/34/200 163/35/201 201/35/241 200/34/240 
f 163/35/201 164/36/202 202/36/242 201/35/241 
f 164/36/202 165/37/203 203/37/243 202/36/242 
f 165/37/203 166/38/204 204/38/244 203/37/243 
f 166/38/204 167/39/205 205/39/245 204/38/244 
f 167/39/205 168/40/206 206/40/246 205/39/245 
f 168/40/206 169/32/207 207/32/247 206/40/246 
f 169/32/207 170/24/208 208/24/248 207/32/247 
f 170/24/208 171/15/209 209/15/249 208/24/248 
f 171/15/209 151/16/211 189/16/229 209/15/249 
f 173/11/213 172/13/212 210/13/250 211/11/251 
f 172/13/212 174/23/214 212/23/252 210/13/250 
f 174/23/214 175/31/215 213/31/253 212/23/252 
f 175/31/215 176/30/216 214/30/254 213/31/253 
f 176/30/216 177/29/217 215/29/255 214/30/254 
f 177/29/217 178/21/218 216/21/256 215/29/255 
f 178/21/218 179/9/219 217/9/257 216/21/256 
f 179/9/219 173/11/213 211/11/251 217/9/257 
f 181/5/221 180/7/220 218/7/258 219/5/259 
f 180/7/220 182/20/222 220/20/260 218/7/258 
f 182/20/222 183/28/223 221/28/261 220/20/260 
f 183/28/223 184/27/224 222/27/262 221/28/261 
f 184/27/224 185/26/225 223/26/263 222/27/262 
f 185/26/225 186/18/226 224/18/264 223/26/263 
f 186/18/226 187/3/227 225/3/265 224/18/264 
f 187/3/227 181/5/221 219/5/259 225/3/265 
f 189/16/229 188/14/228 42/14/42 41/16/41 
f 188/14/228 190/12/230 45/12/45 42/14/42 
f 190/12/230 191/10/231 47/10/47 45/12/45 
f 191/10/231 192/8/232 49/8/49 47/10/47 
f 192/8/232 193/6/233 51/6/51 49/8/49 
f 193/6/233 194/4/234 53/4/53 51/6/51 
f 194/4/234 195/1/235 55/1/55 53/4/53 
f 195/1/235 196/2/236 56/2/56 55/1/55 
f 196/2/236 197/17/237 73/17/73 56/2/56 
f 197/17/237 198/25/238 85/25/85 73/17/73 
f 198/25/238 199/33/239 96/33/96 85/25/85 
f 199/33/239 200/34/240 95/34/95 96/33/96 
f 200/34/240 201/35/241 94/35/94 95/34/95 
f 201/35/241 202/36/242 92/36/92 94/35/94 
f 202/36/242 203/37/243 91/37/91 92/36/92 
f 203/37/243 204/38/244 90/38/90 91/37/91 
f 204/38/244 205/39/245 87/39/87 90/38/90 
f 205/39/245 206/40/246 88/40/88 87/39/87 
f 206/40/246 207/32/247 76/32/76 88/40/88 
f 207/32/247 208/24/248 58/24/58 76/32/76 
f 208/24/248 209/15/249 44/15/44 58/24/58 
f 209/15/249 189/16/229 41/16/41 44/15/44 
f 211/11/251 210/13/250 43/13/43 46/11/46 
f 210/13/250 212/23/252 57/23/57 43/13/43 
f 212/23/252 213/31/253 75/31/75 57/23/57 
f 213/31/253 214/30/254 89/30/89 75/31/75 
f 214/30/254 215/29/255 81/29/81 89/30/89 
f 215/29/255 216/21/256 66/21/66 81/29/81 
f 216/21/256 217/9/257 48/9/48 66/21/66 
f 217/9/257 211/11/251 46/11/46 48/9/48 
f 219/5/259 218/7/258 50/7/50 52/5/52 
f 218/7/258 220/20/260 65/20/65 50/7/50 
f 220/20/260 221/28/261 80/28/80 65/20/65 
f 221/28/261 222/27/262 93/27/93 80/28/80 
f 222/27/262 223/26/263 86/26/86 93/27/93 
f 223/26/263 224/18/264 74/18/74 86/26/86 
f 224/18/264 225/3/265 54/3/54 74/18/74 
f 225/3/265 219/5/259 52/5/52 54/3/54 
# 230 polygons

